<svg width="65.088mm" height="65.087mm" version="1.1" viewBox="0 0 65.088 65.087" xmlns="http://www.w3.org/2000/svg">
 <g transform="translate(-67.337 -49.141)">
  <path d="m67.337 108.67v-5.5562h11.112v11.112h-11.112zm9.525 0v-3.9688h-7.9375v7.9375h7.9375zm-6.35 0v-2.3812h4.7625v4.7625h-4.7625zm9.525 3.9688v-1.5875h0.79375c0.70556 0 0.79375-0.0882 0.79375-0.79375s-0.08819-0.79375-0.79375-0.79375h-0.79375v-3.175h1.5875v-3.175h-0.79375c-0.70556 0-0.79375-0.0882-0.79375-0.79375s0.08819-0.79375 0.79375-0.79375c0.70556 0 0.79375 0.0882 0.79375 0.79375 0 0.70556 0.08819 0.79375 0.79375 0.79375 0.70556 0 0.79375-0.0882 0.79375-0.79375s0.08819-0.79375 0.79375-0.79375h0.79375v-3.175h-0.79375c-0.70556 0-0.79375 0.08819-0.79375 0.79375v0.79375h-4.7625v1.5875h-4.7625v-0.79374c0-0.70556-0.08819-0.79375-0.79375-0.79375-0.70556 0-0.79375-0.08819-0.79375-0.79375v-0.79375h3.175v1.5875h3.175v-0.79375c0-0.70556-0.08819-0.79375-0.79375-0.79375-0.70556 0-0.79375-0.08819-0.79375-0.79375 0-0.70556 0.08819-0.79375 0.79375-0.79375 0.70556 0 0.79375 0.08819 0.79375 0.79375 0 0.70556 0.08819 0.79375 0.79375 0.79375h0.79375v-6.35h-4.7625v1.5875h3.175v1.5875h-3.175v1.5875h-4.7625v4.7625h-3.175v-6.35h0.79375c0.70556 0 0.79375 0.08819 0.79375 0.79375 0 0.70556 0.08819 0.79375 0.79375 0.79375h0.79375v-3.175h-0.79375c-0.70556 0-0.79375-0.08819-0.79375-0.79375 0-0.70556 0.08819-0.79375 0.79375-0.79375 0.70556 0 0.79375 0.08819 0.79375 0.79375v0.79375h3.175v-0.79375c0-0.70556 0.08819-0.79375 0.79375-0.79375 0.70556 0 0.79375-0.08819 0.79375-0.79375v-0.79375h3.175v-0.79375c0-0.70556-0.08819-0.79375-0.79375-0.79375-0.70556 0-0.79375-0.08819-0.79375-0.79375v-0.79375h6.35v0.79375c0 0.70556 0.08819 0.79375 0.79375 0.79375h0.79375v-3.175h-3.175v-1.5875h4.7625v-0.79375c0-0.70556 0.08819-0.79375 0.79375-0.79375 0.70556 0 0.79375-0.08819 0.79375-0.79375 0-0.70556 0.08819-0.79375 0.79375-0.79375 0.70556 0 0.79375-0.08819 0.79375-0.79375 0-0.70556 0.08819-0.79375 0.79375-0.79375h0.79375v-3.175h4.7625v0.79375c0 0.70556 0.08819 0.79375 0.79375 0.79375 0.70556 0 0.79375-0.08819 0.79375-0.79375 0-0.70556 0.08819-0.79375 0.79375-0.79375 0.70556 0 0.79375-0.08819 0.79375-0.79375 0-0.70556-0.08819-0.79375-0.79375-0.79375h-0.79375v-3.175h3.175v-0.79375c0-0.70556-0.0882-0.79375-0.79375-0.79375-0.70556 0-0.79375-0.08819-0.79375-0.79375 0-0.70556 0.08819-0.79375 0.79375-0.79375 0.70556 0 0.79375 0.08819 0.79375 0.79375v0.79375h3.175v-0.79375c0-0.70556 0.0882-0.79375 0.79375-0.79375 0.70556 0 0.79375-0.08819 0.79375-0.79375 0-0.70556-0.0882-0.79375-0.79375-0.79375s-0.79375-0.08819-0.79375-0.79375c0-0.70556-0.0882-0.79375-0.79375-0.79375s-0.79375 0.08819-0.79375 0.79375c0 0.70556-0.0882 0.79375-0.79375 0.79375s-0.79375-0.08819-0.79375-0.79375v-0.79375h-3.175v-4.7625h-1.5875v-3.175h-1.5875v-3.175h0.79375c0.70556 0 0.79375-0.08819 0.79375-0.79375 0-0.70556-0.08819-0.79375-0.79375-0.79375h-0.79375v-3.175h3.175v1.5875h3.175v-1.5875h3.175v1.5875h-3.175v1.5875h3.175v0.79375c0 0.70556-0.0882 0.79375-0.79375 0.79375h-0.79375v3.175h4.7625v3.175h0.79375c0.70555 0 0.79375-0.08819 0.79375-0.79375 0-0.70556 0.0882-0.79375 0.79375-0.79375s0.79375 0.08819 0.79375 0.79375c0 0.70556-0.0882 0.79375-0.79375 0.79375-0.70556 0-0.79375 0.08819-0.79375 0.79375v0.79375h3.175v6.35h0.79375c0.70555 0 0.79375-0.08819 0.79375-0.79375 0-0.70556 0.0882-0.79375 0.79375-0.79375h0.79375v-3.175h-0.79375c-0.70556 0-0.79375-0.08819-0.79375-0.79375 0-0.70556 0.0882-0.79375 0.79375-0.79375h0.79375v-3.175h-0.79375c-0.70556 0-0.79375 0.08819-0.79375 0.79375 0 0.70556-0.0882 0.79375-0.79375 0.79375-0.70556 0-0.79375-0.08819-0.79375-0.79375 0-0.70556 0.0882-0.79375 0.79375-0.79375s0.79375-0.08819 0.79375-0.79375c0-0.70556-0.0882-0.79375-0.79375-0.79375h-0.79375v-6.35h0.79375c0.70555 0 0.79375-0.08819 0.79375-0.79375v-0.79375h3.175v0.79375c0 0.70556 0.0882 0.79375 0.79375 0.79375s0.79375-0.08819 0.79375-0.79375c0-0.70556 0.0882-0.79375 0.79375-0.79375s0.79375 0.08819 0.79375 0.79375c0 0.70556-0.0882 0.79375-0.79375 0.79375-0.70556 0-0.79375 0.08819-0.79375 0.79375 0 0.70556 0.0882 0.79375 0.79375 0.79375h0.79375v9.525h-1.5875v3.175h0.79375c0.70555 0 0.79375-0.08819 0.79375-0.79375 0-0.70556 0.0882-0.79375 0.79375-0.79375s0.79375-0.08819 0.79375-0.79375c0-0.70556 0.0882-0.79375 0.79375-0.79375s0.79375 0.08819 0.79375 0.79375v0.79375h3.175v1.5875h-3.175v1.5875h4.7625v-3.175h1.5875v3.175h-0.79375c-0.70556 0-0.79375 0.08819-0.79375 0.79375v0.79375h-3.175v0.79375c0 0.70556 0.0882 0.79375 0.79375 0.79375s0.79375 0.08819 0.79375 0.79375v0.79375h-3.175v3.175h-1.5875v-4.7625h-4.7625v0.79375c0 0.70556 0.0882 0.79375 0.79375 0.79375s0.79375 0.08819 0.79375 0.79375c0 0.70556 0.0882 0.79375 0.79375 0.79375h0.79375v6.35h-3.175v-3.175h0.79375c0.70555 0 0.79375-0.08819 0.79375-0.79375 0-0.70556-0.0882-0.79375-0.79375-0.79375h-0.79375v-3.175h-0.79375c-0.70556 0-0.79375-0.08819-0.79375-0.79375 0-0.70556 0.0882-0.79375 0.79375-0.79375s0.79375-0.08819 0.79375-0.79375c0-0.70556 0.0882-0.79375 0.79375-0.79375h0.79375v-3.175h-0.79375c-0.70556 0-0.79375 0.08819-0.79375 0.79375 0 0.70556-0.0882 0.79375-0.79375 0.79375-0.70556 0-0.79375 0.08819-0.79375 0.79375 0 0.70556-0.0882 0.79375-0.79375 0.79375h-0.79375v6.35h-1.5875v4.7625h0.79375c0.70555 0 0.79375 0.08819 0.79375 0.79375 0 0.70556 0.0882 0.79375 0.79375 0.79375s0.79375 0.08819 0.79375 0.79375v0.79375h3.175v-1.5875h3.175v-1.5875h3.175v-3.175h3.175v3.175h1.5875v6.35h0.79375c0.70555 0 0.79375 0.08819 0.79375 0.79375 0 0.70556 0.0882 0.79375 0.79375 0.79375h0.79375v6.35h-0.79375c-0.70556 0-0.79375 0.08819-0.79375 0.79375 0 0.70556 0.0882 0.79375 0.79375 0.79375h0.79375v6.35h-0.79375c-0.70556 0-0.79375-0.0882-0.79375-0.79374 0-0.70556-0.0882-0.79375-0.79375-0.79375h-0.79375v3.175h-0.79375c-0.70556 0-0.79375 0.0882-0.79375 0.79375 0 0.70556 0.0882 0.79375 0.79375 0.79375s0.79375 0.0882 0.79375 0.79375v0.79375h3.175v6.35h-1.5875v-3.175h-3.175v-1.5875h-6.35v3.175h0.79375c0.70555 0 0.79375 0.0882 0.79375 0.79375 0 0.70556 0.0882 0.79375 0.79375 0.79375s0.79375 0.0882 0.79375 0.79375c0 0.70556-0.0882 0.79375-0.79375 0.79375-0.70556 0-0.79375-0.0882-0.79375-0.79375s-0.0882-0.79375-0.79375-0.79375c-0.70556 0-0.79375-0.0882-0.79375-0.79375v-0.79375h-3.175v-0.79375c0-0.70555-0.0882-0.79375-0.79375-0.79375-0.70556 0-0.79375 0.0882-0.79375 0.79375 0 0.70556-0.0882 0.79375-0.79375 0.79375h-0.79375v-3.175h1.5875v-4.7625h-1.5875v3.175h-3.175v0.79375c0 0.70556 0.0882 0.79375 0.79375 0.79375h0.79375v3.175h-0.79375c-0.70556 0-0.79375 0.0882-0.79375 0.79375 0 0.70556-0.0882 0.79375-0.79375 0.79375-0.70556 0-0.79375 0.0882-0.79375 0.79375v0.79375h-6.35v-0.79375c0-0.70555-0.0882-0.79375-0.79375-0.79375s-0.79375-0.0882-0.79375-0.79375v-0.79375h-4.7625v-0.79375c0-0.70555-0.08819-0.79375-0.79375-0.79375-0.70556 0-0.79375 0.0882-0.79375 0.79375 0 0.70556-0.08819 0.79375-0.79375 0.79375h-0.79375v3.175h-3.175v-0.79375c0-0.70555 0.08819-0.79375 0.79375-0.79375 0.70556 0 0.79375-0.0882 0.79375-0.79375v-0.79375h-4.7625v0.79375c0 0.70556 0.08819 0.79375 0.79375 0.79375 0.70556 0 0.79375 0.0882 0.79375 0.79375v0.79375h-9.525zm6.35-0.79375c0-0.70555 0.08819-0.79375 0.79375-0.79375 0.70556 0 0.79375-0.0882 0.79375-0.79375s-0.08819-0.79375-0.79375-0.79375c-0.70556 0-0.79375-0.0882-0.79375-0.79375s0.08819-0.79375 0.79375-0.79375h0.79375v-4.7625h-1.5875v3.175h-1.5875v-3.175h-1.5875v3.175h-1.5875v3.175h0.79375c0.70556 0 0.79375-0.0882 0.79375-0.79375s0.08819-0.79375 0.79375-0.79375h0.79375v3.175h-0.79375c-0.70556 0-0.79375 0.0882-0.79375 0.79375v0.79375h3.175zm19.05-0.79375v-1.5875h3.175v-4.7625h0.79375c0.70555 0 0.79375 0.0882 0.79375 0.79375 0 0.70556 0.0882 0.79375 0.79375 0.79375s0.79375-0.0882 0.79375-0.79375 0.0882-0.79375 0.79375-0.79375 0.79375-0.0882 0.79375-0.79375 0.0882-0.79375 0.79375-0.79375 0.79375-0.0882 0.79375-0.79375 0.0882-0.79375 0.79375-0.79375 0.79375 0.0882 0.79375 0.79375c0 0.70556 0.0882 0.79375 0.79375 0.79375s0.79375-0.0882 0.79375-0.79375-0.0882-0.79375-0.79375-0.79375c-0.70556 0-0.79375-0.0882-0.79375-0.79374v-0.79375h6.35v-1.5875h-3.175v-0.79375c0-0.70556 0.0882-0.79375 0.79375-0.79375s0.79375-0.08819 0.79375-0.79375c0-0.70556 0.0882-0.79375 0.79375-0.79375s0.79375 0.08819 0.79375 0.79375c0 0.70556 0.0882 0.79375 0.79375 0.79375s0.79375-0.08819 0.79375-0.79375v-0.79375h3.175v3.175h-1.5875v4.7625h1.5875v-4.7625h3.175v-0.79375c0-0.70556-0.0882-0.79375-0.79375-0.79375h-0.79375v-3.175h-4.7625v-3.175h-1.5875v3.175h-0.79375c-0.70556 0-0.79375-0.08819-0.79375-0.79375v-0.79375h-4.7625v-1.5875h4.7625v-1.5875h-3.175v-0.79375c0-0.70556-0.0882-0.79375-0.79375-0.79375-0.70556 0-0.79375-0.08819-0.79375-0.79375v-0.79375h3.175v-0.79375c0-0.70556 0.0882-0.79375 0.79375-0.79375s0.79375 0.08819 0.79375 0.79375c0 0.70556 0.0882 0.79375 0.79375 0.79375s0.79375 0.08819 0.79375 0.79375c0 0.70556 0.0882 0.79375 0.79375 0.79375s0.79375 0.08819 0.79375 0.79375c0 0.70556 0.0882 0.79375 0.79375 0.79375h0.79375v3.175h0.79375c0.70555 0 0.79375-0.08819 0.79375-0.79375 0-0.70556 0.0882-0.79375 0.79375-0.79375s0.79375 0.08819 0.79375 0.79375c0 0.70556 0.0882 0.79375 0.79375 0.79375h0.79375v-3.175h-1.5875v-3.175h-1.5875v-3.175h-0.79375c-0.70556 0-0.79375-0.08819-0.79375-0.79375 0-0.70556 0.0882-0.79375 0.79375-0.79375s0.79375-0.08819 0.79375-0.79375c0-0.70556-0.0882-0.79375-0.79375-0.79375-0.70556 0-0.79375 0.08819-0.79375 0.79375 0 0.70556-0.0882 0.79375-0.79375 0.79375-0.70556 0-0.79375 0.08819-0.79375 0.79375 0 0.70556 0.0882 0.79375 0.79375 0.79375h0.79375v3.175h1.5875v3.175h-0.79375c-0.70556 0-0.79375-0.08819-0.79375-0.79375 0-0.70556-0.0882-0.79375-0.79375-0.79375h-0.79375v-3.175h-0.79375c-0.70556 0-0.79375-0.08819-0.79375-0.79375v-0.79375h-4.7625v0.79375c0 0.70556-0.0882 0.79375-0.79375 0.79375-0.70556 0-0.79375 0.08819-0.79375 0.79375 0 0.70556-0.0882 0.79375-0.79375 0.79375h-0.79375v-3.175h-1.5875v3.175h0.79375c0.70555 0 0.79375 0.08819 0.79375 0.79375 0 0.70556-0.0882 0.79375-0.79375 0.79375-0.70556 0-0.79375 0.08819-0.79375 0.79375 0 0.70556 0.0882 0.79375 0.79375 0.79375s0.79375 0.08819 0.79375 0.79375v0.79375h-3.175v1.5875h-4.7625v0.79375c0 0.70556 0.0882 0.79375 0.79375 0.79375s0.79375 0.08819 0.79375 0.79375v0.79375h3.175v0.79375c0 0.70556 0.0882 0.79375 0.79375 0.79375s0.79375-0.08819 0.79375-0.79375v-0.79375h4.7625v-0.79375c0-0.70556 0.0882-0.79375 0.79375-0.79375h0.79375v3.175h-0.79375c-0.70556 0-0.79375 0.08819-0.79375 0.79375 0 0.70556-0.0882 0.79375-0.79375 0.79375-0.70556 0-0.79375-0.08819-0.79375-0.79375 0-0.70556-0.0882-0.79375-0.79375-0.79375-0.70556 0-0.79375 0.08819-0.79375 0.79375 0 0.70556-0.0882 0.79375-0.79375 0.79375-0.70556 0-0.79375 0.08819-0.79375 0.79375 0 0.70556 0.0882 0.79375 0.79375 0.79375s0.79375 0.08819 0.79375 0.79375v0.79374h-3.175v3.175h-0.79375c-0.70556 0-0.79375-0.0882-0.79375-0.79375s-0.0882-0.79375-0.79375-0.79375c-0.70556 0-0.79375-0.0882-0.79375-0.79375s0.0882-0.79375 0.79375-0.79375 0.79375-0.0882 0.79375-0.79374c0-0.70556 0.0882-0.79375 0.79375-0.79375s0.79375-0.08819 0.79375-0.79375c0-0.70556-0.0882-0.79375-0.79375-0.79375-0.70556 0-0.79375-0.08819-0.79375-0.79375 0-0.70556-0.0882-0.79375-0.79375-0.79375h-0.79375v3.175h-0.79375c-0.70556 0-0.79375-0.08819-0.79375-0.79375 0-0.70556-0.0882-0.79375-0.79376-0.79375-0.70555 0-0.79375 0.08819-0.79375 0.79375 0 0.70556-0.0882 0.79375-0.79375 0.79375s-0.79375 0.08819-0.79375 0.79375c0 0.70555 0.0882 0.79374 0.79375 0.79374 0.70556 0 0.79375 0.0882 0.79375 0.79375 0 0.70556 0.0882 0.79375 0.79375 0.79375h0.79376v3.175h-1.5875v3.175h-1.5875v-3.175h-0.79375c-0.70555 0-0.79375-0.0882-0.79375-0.79375s0.0882-0.79375 0.79375-0.79375c0.70556 0 0.79375-0.0882 0.79375-0.79375s-0.0882-0.79375-0.79375-0.79375h-0.79375v-7.9375h0.79375c0.70556 0 0.79375 0.08819 0.79375 0.79375v0.79375h3.175v-1.5875h-3.175v-0.79375c0-0.70556 0.0882-0.79375 0.79375-0.79375h0.79375v-3.175h0.79375c0.70556 0 0.79376-0.08819 0.79376-0.79375v-0.79375h3.175v-0.79375c0-0.70556 0.0882-0.79375 0.79375-0.79375s0.79375-0.08819 0.79375-0.79375c0-0.70556-0.0882-0.79375-0.79375-0.79375-0.70556 0-0.79375-0.08819-0.79375-0.79375 0-0.70556-0.0882-0.79375-0.79375-0.79375-0.70556 0-0.79375-0.08819-0.79375-0.79375 0-0.70556-0.0882-0.79375-0.79375-0.79375-0.70556 0-0.79375 0.08819-0.79375 0.79375 0 0.70556-0.0882 0.79375-0.79376 0.79375-0.70555 0-0.79375 0.08819-0.79375 0.79375 0 0.70556 0.0882 0.79375 0.79375 0.79375h0.79376v3.175h-0.79376c-0.70555 0-0.79375-0.08819-0.79375-0.79375v-0.79375h-3.175v-3.175h-0.79375c-0.70555 0-0.79375-0.08819-0.79375-0.79375v-0.79375h4.7625v-3.175h3.175v-0.79375c0-0.70556 0.0882-0.79375 0.79375-0.79375h0.79375v-3.175h0.79375c0.70555 0 0.79375-0.08819 0.79375-0.79375v-0.79375h-3.175v-0.79375c0-0.70556-0.0882-0.79375-0.79375-0.79375h-0.79375v3.175h-0.79376c-0.70555 0-0.79375 0.08819-0.79375 0.79375 0 0.70556-0.0882 0.79375-0.79375 0.79375s-0.79375 0.08819-0.79375 0.79375c0 0.70556 0.0882 0.79375 0.79375 0.79375 0.70556 0 0.79375 0.08819 0.79375 0.79375v0.79375h-3.175v-4.7625h0.79375c0.70556 0 0.79375-0.08819 0.79375-0.79375 0-0.70556 0.0882-0.79375 0.79375-0.79375 0.70556 0 0.79375-0.08819 0.79375-0.79375 0-0.70556-0.0882-0.79375-0.79375-0.79375s-0.79375 0.08819-0.79375 0.79375v0.79375h-3.175v4.7625h-0.79375c-0.70556 0-0.79375 0.08819-0.79375 0.79375 0 0.70556-0.08819 0.79375-0.79375 0.79375h-0.79375v3.175h0.79375c0.70556 0 0.79375 0.08819 0.79375 0.79375 0 0.70556-0.08819 0.79375-0.79375 0.79375h-0.79375v3.175h-3.175v0.79375c0 0.70556-0.08819 0.79375-0.79375 0.79375h-0.79375v4.7625h-1.5875v-3.175h-0.79375c-0.70556 0-0.79375 0.08819-0.79375 0.79375 0 0.70556-0.08819 0.79375-0.79375 0.79375h-0.79375v3.175h-0.79375c-0.70556 0-0.79375 0.08819-0.79375 0.79375 0 0.70556-0.08819 0.79375-0.79375 0.79375-0.70556 0-0.79375-0.08819-0.79375-0.79375 0-0.70556-0.08819-0.79375-0.79375-0.79375-0.70556 0-0.79375-0.08819-0.79375-0.79375v-0.79375h3.175v-3.175h0.79375c0.70556 0 0.79375-0.08819 0.79375-0.79375 0-0.70556 0.08819-0.79375 0.79375-0.79375h0.79375v-6.35h-0.79375c-0.70556 0-0.79375 0.08819-0.79375 0.79375 0 0.70556-0.08819 0.79375-0.79375 0.79375-0.70556 0-0.79375 0.08819-0.79375 0.79375 0 0.70556 0.08819 0.79375 0.79375 0.79375h0.79375v3.175h-0.79375c-0.70556 0-0.79375 0.08819-0.79375 0.79375 0 0.70556-0.08819 0.79375-0.79375 0.79375-0.70556 0-0.79375 0.08819-0.79375 0.79375 0 0.70556-0.08819 0.79375-0.79375 0.79375-0.70556 0-0.79375-0.08819-0.79375-0.79375 0-0.70556-0.08819-0.79375-0.79375-0.79375-0.70556 0-0.79375-0.08819-0.79375-0.79375 0-0.70556-0.08819-0.79375-0.79375-0.79375-0.70556 0-0.79375 0.08819-0.79375 0.79375 0 0.70556 0.08819 0.79375 0.79375 0.79375h0.79375v4.7625h0.79375c0.70556 0 0.79375 0.08819 0.79375 0.79375 0 0.70556-0.08819 0.79375-0.79375 0.79375-0.70556 0-0.79375 0.08819-0.79375 0.79375 0 0.70556 0.08819 0.79375 0.79375 0.79375 0.70556 0 0.79375-0.08819 0.79375-0.79375 0-0.70556 0.08819-0.79375 0.79375-0.79375 0.70556 0 0.79375 0.08819 0.79375 0.79375 0 0.70556 0.08819 0.79375 0.79375 0.79375 0.70556 0 0.79375 0.08819 0.79375 0.79375 0 0.70556 0.08819 0.79375 0.79375 0.79375 0.70556 0 0.79375 0.08819 0.79375 0.79375 0 0.70555 0.08819 0.79374 0.79375 0.79374h0.79375v6.35h0.79375c0.70556 0 0.79375 0.0882 0.79375 0.79375 0 0.70556 0.08819 0.79375 0.79375 0.79375 0.70556 0 0.79375 0.0882 0.79375 0.79375 0 0.70556 0.08819 0.79375 0.79375 0.79375h0.79375v-4.7625h0.79375c0.70556 0 0.79375 0.0882 0.79375 0.79375 0 0.70556 0.08819 0.79375 0.79375 0.79375 0.70556 0 0.79375 0.0882 0.79375 0.79375v0.79375h3.175v-0.79375c0-0.70555 0.0882-0.79375 0.79375-0.79375h0.79375v3.175h0.79375c0.70556 0 0.79375 0.0882 0.79375 0.79375 0 0.70556 0.0882 0.79375 0.79375 0.79375h0.79375zm-14.287-6.35v-3.175h-0.79375c-0.70556 0-0.79375-0.0882-0.79375-0.79374 0-0.70556-0.08819-0.79375-0.79375-0.79375-0.70556 0-0.79375-0.08819-0.79375-0.79375 0-0.70556-0.08819-0.79375-0.79375-0.79375-0.70556 0-0.79375-0.08819-0.79375-0.79375v-0.79375h3.175v-3.175h1.5875v4.7625h0.79375c0.70556 0 0.79375-0.08819 0.79375-0.79375v-0.79375h3.175v-0.79375c0-0.70556-0.08819-0.79375-0.79375-0.79375-0.70556 0-0.79375-0.08819-0.79375-0.79375 0-0.70556 0.08819-0.79375 0.79375-0.79375 0.70556 0 0.79375-0.08819 0.79375-0.79375 0-0.70556-0.08819-0.79375-0.79375-0.79375h-0.79375v-3.175h3.175v-1.5875h3.175v1.5875h-3.175v0.79375c0 0.70556 0.08819 0.79375 0.79375 0.79375h0.79375v3.175h0.79375c0.70556 0 0.79375 0.08819 0.79375 0.79375 0 0.70556-0.0882 0.79375-0.79375 0.79375h-0.79375v7.9375h3.175v1.5875h-3.175v-1.5875h-4.7625v3.175h-0.79375c-0.70556 0-0.79375 0.0882-0.79375 0.79375 0 0.70556-0.08819 0.79375-0.79375 0.79375h-0.79375zm3.175-2.3812c0-0.70555-0.08819-0.79375-0.79375-0.79375-0.70556 0-0.79375-0.0882-0.79375-0.79374 0-0.70556-0.08819-0.79375-0.79375-0.79375-0.70556 0-0.79375 0.08819-0.79375 0.79375 0 0.70555 0.08819 0.79374 0.79375 0.79374 0.70556 0 0.79375 0.0882 0.79375 0.79375 0 0.70556 0.08819 0.79375 0.79375 0.79375 0.70556 0 0.79375-0.0882 0.79375-0.79375zm3.175-2.3812v-1.5875h-3.175v0.79375c0 0.70556 0.08819 0.79375 0.79375 0.79375 0.70556 0 0.79375 0.08819 0.79375 0.79375 0 0.70555 0.08819 0.79374 0.79375 0.79374h0.79375zm1.5875-5.5562c0-0.70556-0.08819-0.79375-0.79375-0.79375-0.70556 0-0.79375 0.08819-0.79375 0.79375 0 0.70556 0.08819 0.79375 0.79375 0.79375 0.70556 0 0.79375-0.08819 0.79375-0.79375zm-1.5875-3.175c0-0.70556-0.08819-0.79375-0.79375-0.79375-0.70556 0-0.79375 0.08819-0.79375 0.79375 0 0.70556 0.08819 0.79375 0.79375 0.79375 0.70556 0 0.79375-0.08819 0.79375-0.79375zm0 15.875c0-0.70555-0.08819-0.79375-0.79375-0.79375-0.70556 0-0.79375-0.0882-0.79375-0.79375s0.08819-0.79375 0.79375-0.79375c0.70556 0 0.79375 0.0882 0.79375 0.79375 0 0.70556 0.08819 0.79375 0.79375 0.79375 0.70556 0 0.79375 0.0882 0.79375 0.79375 0 0.70556-0.08819 0.79375-0.79375 0.79375-0.70556 0-0.79375-0.0882-0.79375-0.79375zm17.463-7.9375c0-0.70556 0.0882-0.79375 0.79375-0.79375s0.79375 0.08819 0.79375 0.79375c0 0.70556-0.0882 0.79375-0.79375 0.79375-0.70556 0-0.79375-0.08819-0.79375-0.79375zm-14.288-7.9375c0-0.70556 0.0882-0.79375 0.79375-0.79375 0.70556 0 0.79375-0.08819 0.79375-0.79375v-0.79375h3.175v0.79375c0 0.70556-0.0882 0.79375-0.79375 0.79375s-0.79375 0.08819-0.79375 0.79375v0.79375h-3.175zm7.9375-4.7625c0-0.70556 0.0882-0.79375 0.79375-0.79375s0.79375 0.08819 0.79375 0.79375c0 0.70556-0.0882 0.79375-0.79375 0.79375-0.70556 0-0.79375-0.08819-0.79375-0.79375zm-9.525-1.5875c0-0.70556 0.08819-0.79375 0.79375-0.79375 0.70556 0 0.79375 0.08819 0.79375 0.79375 0 0.70556-0.0882 0.79375-0.79375 0.79375-0.70556 0-0.79375-0.08819-0.79375-0.79375zm0-3.175c0-0.70556 0.08819-0.79375 0.79375-0.79375 0.70556 0 0.79375 0.08819 0.79375 0.79375 0 0.70556-0.0882 0.79375-0.79375 0.79375-0.70556 0-0.79375-0.08819-0.79375-0.79375zm7.9375-6.35c0-0.70556 0.0882-0.79375 0.79375-0.79375s0.79375 0.08819 0.79375 0.79375c0 0.70556-0.0882 0.79375-0.79375 0.79375-0.70556 0-0.79375-0.08819-0.79375-0.79375zm1.5875 36.512c0-0.70555-0.0882-0.79375-0.79375-0.79375-0.70556 0-0.79375 0.0882-0.79375 0.79375 0 0.70556 0.0882 0.79375 0.79375 0.79375s0.79375-0.0882 0.79375-0.79375zm20.638-4.7625c0-0.70555-0.0882-0.79375-0.79375-0.79375-0.70556 0-0.79375 0.0882-0.79375 0.79375 0 0.70556 0.0882 0.79375 0.79375 0.79375s0.79375-0.0882 0.79375-0.79375zm-4.7625-3.175v-2.3812h-4.7625v4.7625h4.7625zm-3.175 0c0-0.70555 0.0882-0.79375 0.79375-0.79375s0.79375 0.0882 0.79375 0.79375c0 0.70556-0.0882 0.79375-0.79375 0.79375-0.70556 0-0.79375-0.0882-0.79375-0.79375zm-28.575-17.462c0-0.70556-0.08819-0.79375-0.79375-0.79375-0.70556 0-0.79375 0.08819-0.79375 0.79375 0 0.70556 0.08819 0.79375 0.79375 0.79375 0.70556 0 0.79375-0.08819 0.79375-0.79375zm3.175-2.3812v-1.5875h-0.79375c-0.70556 0-0.79375-0.08819-0.79375-0.79375 0-0.70556 0.08819-0.79375 0.79375-0.79375h0.79375v-3.175h-1.5875v3.175h-0.79375c-0.70556 0-0.79375-0.08819-0.79375-0.79375 0-0.70556-0.08819-0.79375-0.79375-0.79375h-0.79375v4.7625h0.79375c0.70556 0 0.79375-0.08819 0.79375-0.79375 0-0.70556 0.08819-0.79375 0.79375-0.79375h0.79375v3.175h1.5875zm15.875-3.9688c0-0.70556-0.0882-0.79375-0.79375-0.79375-0.70556 0-0.79375 0.08819-0.79375 0.79375 0 0.70556 0.0882 0.79375 0.79375 0.79375s0.79375-0.08819 0.79375-0.79375zm-3.175-11.112c0-0.70556 0.0882-0.79375 0.79375-0.79375s0.79375 0.08819 0.79375 0.79375c0 0.70556 0.0882 0.79375 0.79375 0.79375s0.79375-0.08819 0.79375-0.79375c0-0.70556-0.0882-0.79375-0.79375-0.79375-0.70556 0-0.79375-0.08819-0.79375-0.79375 0-0.70556-0.0882-0.79375-0.79375-0.79375h-0.79375v-4.7625h-0.79375c-0.70556 0-0.79375 0.08819-0.79375 0.79375 0 0.70556-0.0882 0.79375-0.79376 0.79375h-0.79375v-4.7625h-0.79375c-0.70555 0-0.79375 0.08819-0.79375 0.79375 0 0.70556-0.0882 0.79375-0.79375 0.79375s-0.79375-0.08819-0.79375-0.79375c0-0.70556-0.0882-0.79375-0.79375-0.79375s-0.79375 0.08819-0.79375 0.79375c0 0.70556 0.0882 0.79375 0.79375 0.79375 0.70556 0 0.79375 0.08819 0.79375 0.79375v0.79375h-3.175v0.79375c0 0.70556 0.08819 0.79375 0.79375 0.79375 0.70556 0 0.79375 0.08819 0.79375 0.79375 0 0.70556 0.0882 0.79375 0.79375 0.79375 0.70556 0 0.79375-0.08819 0.79375-0.79375v-0.79375h3.175v0.79375c0 0.70556 0.0882 0.79375 0.79375 0.79375h0.79376v4.7625h0.79375c0.70555 0 0.79375-0.08819 0.79375-0.79375zm14.288-1.5875c0-0.70556-0.0882-0.79375-0.79375-0.79375-0.70556 0-0.79375-0.08819-0.79375-0.79375 0-0.70556 0.0882-0.79375 0.79375-0.79375s0.79375-0.08819 0.79375-0.79375c0-0.70556-0.0882-0.79375-0.79375-0.79375-0.70556 0-0.79375 0.08819-0.79375 0.79375 0 0.70556-0.0882 0.79375-0.79375 0.79375-0.70556 0-0.79375 0.08819-0.79375 0.79375 0 0.70556 0.0882 0.79375 0.79375 0.79375s0.79375 0.08819 0.79375 0.79375c0 0.70556 0.0882 0.79375 0.79375 0.79375s0.79375-0.08819 0.79375-0.79375zm-6.35-4.7625c0-0.70556-0.0882-0.79375-0.79375-0.79375-0.70556 0-0.79375 0.08819-0.79375 0.79375 0 0.70556 0.0882 0.79375 0.79375 0.79375s0.79375-0.08819 0.79375-0.79375zm-17.463-3.9688v-1.5875h0.79375c0.70556 0 0.79375-0.08819 0.79375-0.79375 0-0.70556-0.0882-0.79375-0.79375-0.79375-0.70556 0-0.79375-0.08819-0.79375-0.79375 0-0.70556 0.08819-0.79375 0.79375-0.79375 0.70556 0 0.79375-0.08819 0.79375-0.79375 0-0.70556-0.0882-0.79375-0.79375-0.79375-0.70556 0-0.79375 0.08819-0.79375 0.79375v0.79375h-3.175v1.5875h3.175v0.79375c0 0.70556-0.08819 0.79375-0.79375 0.79375h-0.79375v3.175h1.5875zm19.05 0v-1.5875h-1.5875v3.175h1.5875zm-1.5875-3.9688c0-0.70556 0.0882-0.79375 0.79375-0.79375s0.79375-0.08819 0.79375-0.79375c0-0.70556-0.0882-0.79375-0.79375-0.79375-0.70556 0-0.79375 0.08819-0.79375 0.79375 0 0.70556-0.0882 0.79375-0.79375 0.79375h-0.79375v-3.175h-1.5875v3.175h0.79375c0.70555 0 0.79375 0.08819 0.79375 0.79375 0 0.70556 0.0882 0.79375 0.79375 0.79375s0.79375-0.08819 0.79375-0.79375zm-17.463 58.737c0-0.70555 0.08819-0.79375 0.79375-0.79375 0.70556 0 0.79375 0.0882 0.79375 0.79375 0 0.70556-0.0882 0.79375-0.79375 0.79375-0.70556 0-0.79375-0.0882-0.79375-0.79375zm15.875 0v-0.79375h4.7625v1.5875h-4.7625zm11.112-0.79375v-1.5875h-0.79375c-0.70556 0-0.79375-0.0882-0.79375-0.79375s0.0882-0.79375 0.79375-0.79375 0.79375 0.0882 0.79375 0.79375v0.79375h3.175v0.79375c0 0.70556-0.0882 0.79375-0.79375 0.79375-0.70556 0-0.79375 0.0882-0.79375 0.79375 0 0.70556-0.0882 0.79375-0.79375 0.79375h-0.79375zm-58.738-23.019c0-0.70556 0.08819-0.79375 0.79375-0.79375h0.79375v-3.175h1.5875v3.175h0.79375c0.70556 0 0.79375 0.08819 0.79375 0.79375 0 0.70556-0.08819 0.79375-0.79375 0.79375-0.70556 0-0.79375-0.08819-0.79375-0.79375 0-0.70556-0.08819-0.79375-0.79375-0.79375-0.70556 0-0.79375 0.08819-0.79375 0.79375 0 0.70556-0.08819 0.79375-0.79375 0.79375-0.70556 0-0.79375-0.08819-0.79375-0.79375zm4.7625-3.175v-0.79375h3.175v-1.5875h-3.175v-0.79375c0-0.70556-0.08819-0.79375-0.79375-0.79375-0.70556 0-0.79375 0.08819-0.79375 0.79375 0 0.70556-0.08819 0.79375-0.79375 0.79375-0.70556 0-0.79375-0.08819-0.79375-0.79375 0-0.70556-0.08819-0.79375-0.79375-0.79375h-0.79375v-3.175h4.7625v-1.5875h-3.175v-3.175h-1.5875v-3.175h0.79375c0.70556 0 0.79375 0.08819 0.79375 0.79375 0 0.70556 0.08819 0.79375 0.79375 0.79375 0.70556 0 0.79375 0.08819 0.79375 0.79375 0 0.70556 0.08819 0.79375 0.79375 0.79375 0.70556 0 0.79375-0.08819 0.79375-0.79375 0-0.70556 0.08819-0.79375 0.79375-0.79375 0.70556 0 0.79375-0.08819 0.79375-0.79375 0-0.70556 0.08819-0.79375 0.79375-0.79375h0.79375v3.175h-1.5875v4.7625h-1.5875v3.175h0.79375c0.70556 0 0.79375-0.08819 0.79375-0.79375 0-0.70556 0.08819-0.79375 0.79375-0.79375h0.79375v-4.7625h0.79375c0.70556 0 0.79375-0.08819 0.79375-0.79375v-0.79375h3.175v-1.5875h-3.175v-1.5875h4.7625v-0.79375c0-0.70556-0.08819-0.79375-0.79375-0.79375-0.70556 0-0.79375-0.08819-0.79375-0.79375 0-0.70556-0.08819-0.79375-0.79375-0.79375-0.70556 0-0.79375 0.08819-0.79375 0.79375 0 0.70556-0.08819 0.79375-0.79375 0.79375-0.70556 0-0.79375-0.08819-0.79375-0.79375 0-0.70556 0.08819-0.79375 0.79375-0.79375 0.70556 0 0.79375-0.08819 0.79375-0.79375 0-0.70556-0.08819-0.79375-0.79375-0.79375-0.70556 0-0.79375-0.08819-0.79375-0.79375 0-0.70556 0.08819-0.79375 0.79375-0.79375 0.70556 0 0.79375-0.08819 0.79375-0.79375 0-0.70556-0.08819-0.79375-0.79375-0.79375-0.70556 0-0.79375-0.08819-0.79375-0.79375 0-0.70556 0.08819-0.79375 0.79375-0.79375 0.70556 0 0.79375 0.08819 0.79375 0.79375v0.79375h3.175v0.79375c0 0.70556-0.08819 0.79375-0.79375 0.79375-0.70556 0-0.79375 0.08819-0.79375 0.79375 0 0.70556 0.08819 0.79375 0.79375 0.79375h0.79375v3.175h0.79375c0.70556 0 0.79375-0.08819 0.79375-0.79375 0-0.70556 0.08819-0.79375 0.79375-0.79375 0.70556 0 0.79375-0.08819 0.79375-0.79375 0-0.70556-0.08819-0.79375-0.79375-0.79375-0.70556 0-0.79375-0.08819-0.79375-0.79375 0-0.70556 0.08819-0.79375 0.79375-0.79375 0.70556 0 0.79375 0.08819 0.79375 0.79375 0 0.70556 0.08819 0.79375 0.79375 0.79375h0.79375v-4.7625h-0.79375c-0.70556 0-0.79375 0.08819-0.79375 0.79375 0 0.70556-0.08819 0.79375-0.79375 0.79375-0.70556 0-0.79375-0.08819-0.79375-0.79375v-0.79375h-3.175v-3.175h0.79375c0.70556 0 0.79375-0.08819 0.79375-0.79375 0-0.70556 0.08819-0.79375 0.79375-0.79375 0.70556 0 0.79375-0.08819 0.79375-0.79375 0-0.70556 0.08819-0.79375 0.79375-0.79375 0.70556 0 0.79375-0.08819 0.79375-0.79375 0-0.70556 0.08819-0.79375 0.79375-0.79375 0.70556 0 0.79375-0.08819 0.79375-0.79375v-0.79375h-3.175v-1.5875h-3.175v-1.5875h3.175v0.79375c0 0.70556 0.08819 0.79375 0.79375 0.79375 0.70556 0 0.79375-0.08819 0.79375-0.79375 0-0.70556 0.08819-0.79375 0.79375-0.79375h0.79375v3.175h1.5875v7.9375h1.5875v-4.7625h3.175v0.79375c0 0.70556-0.08819 0.79375-0.79375 0.79375h-0.79375v3.175h-0.79375c-0.70556 0-0.79375 0.08819-0.79375 0.79375v0.79375h3.175v4.7625h0.79375c0.70556 0 0.79375-0.08819 0.79375-0.79375 0-0.70556 0.08819-0.79375 0.79375-0.79375h0.79375v3.175h-1.5875v4.7625h-0.79375c-0.70556 0-0.79375 0.08819-0.79375 0.79375v0.79375h-3.175v3.175h-1.5875v-4.7625h-0.79375c-0.70556 0-0.79375 0.08819-0.79375 0.79375 0 0.70556-0.08819 0.79375-0.79375 0.79375h-0.79375v3.175h1.5875v3.175h-1.5875v-3.175h-0.79375c-0.70556 0-0.79375 0.08819-0.79375 0.79375 0 0.70556-0.08819 0.79375-0.79375 0.79375-0.70556 0-0.79375 0.08819-0.79375 0.79375 0 0.70556 0.08819 0.79375 0.79375 0.79375 0.70556 0 0.79375 0.08819 0.79375 0.79375 0 0.70556-0.08819 0.79375-0.79375 0.79375-0.70556 0-0.79375-0.08819-0.79375-0.79375 0-0.70556-0.08819-0.79375-0.79375-0.79375-0.70556 0-0.79375 0.08819-0.79375 0.79375v0.79375h-3.175v1.5875h3.175v1.5875h-4.7625v1.5875h-3.175zm4.7625-4.7625c0-0.70556 0.08819-0.79375 0.79375-0.79375 0.70556 0 0.79375-0.08819 0.79375-0.79375v-0.79375h3.175v-1.5875h-3.175v-0.79375c0-0.70556-0.08819-0.79375-0.79375-0.79375-0.70556 0-0.79375 0.08819-0.79375 0.79375 0 0.70556 0.08819 0.79375 0.79375 0.79375 0.70556 0 0.79375 0.08819 0.79375 0.79375 0 0.70556-0.08819 0.79375-0.79375 0.79375-0.70556 0-0.79375 0.08819-0.79375 0.79375 0 0.70556-0.08819 0.79375-0.79375 0.79375-0.70556 0-0.79375 0.08819-0.79375 0.79375 0 0.70556 0.08819 0.79375 0.79375 0.79375 0.70556 0 0.79375-0.08819 0.79375-0.79375zm4.7625-6.35c0-0.70556-0.08819-0.79375-0.79375-0.79375-0.70556 0-0.79375 0.08819-0.79375 0.79375 0 0.70556 0.08819 0.79375 0.79375 0.79375 0.70556 0 0.79375-0.08819 0.79375-0.79375zm3.175-1.5875c0-0.70556-0.08819-0.79375-0.79375-0.79375-0.70556 0-0.79375 0.08819-0.79375 0.79375 0 0.70556 0.08819 0.79375 0.79375 0.79375 0.70556 0 0.79375-0.08819 0.79375-0.79375zm7.9375-2.3812v-1.5875h-3.175v0.79375c0 0.70556-0.08819 0.79375-0.79375 0.79375-0.70556 0-0.79375-0.08819-0.79375-0.79375 0-0.70556-0.08819-0.79375-0.79375-0.79375-0.70556 0-0.79375-0.08819-0.79375-0.79375 0-0.70556-0.08819-0.79375-0.79375-0.79375h-0.79375v3.175h3.175v1.5875h4.7625zm-3.175-4.7625v-1.5875h0.79375c0.70556 0 0.79375-0.08819 0.79375-0.79375 0-0.70556-0.08819-0.79375-0.79375-0.79375-0.70556 0-0.79375-0.08819-0.79375-0.79375 0-0.70556-0.08819-0.79375-0.79375-0.79375h-0.79375v6.35h1.5875zm3.175 0.79375c0-0.70556-0.08819-0.79375-0.79375-0.79375-0.70556 0-0.79375 0.08819-0.79375 0.79375 0 0.70556 0.08819 0.79375 0.79375 0.79375 0.70556 0 0.79375-0.08819 0.79375-0.79375zm-7.9375-6.35c0-0.70556 0.08819-0.79375 0.79375-0.79375h0.79375v-4.7625h-1.5875v4.7625h-0.79375c-0.70556 0-0.79375-0.08819-0.79375-0.79375 0-0.70556-0.08819-0.79375-0.79375-0.79375-0.70556 0-0.79375 0.08819-0.79375 0.79375 0 0.70556 0.08819 0.79375 0.79375 0.79375 0.70556 0 0.79375 0.08819 0.79375 0.79375 0 0.70556 0.08819 0.79375 0.79375 0.79375 0.70556 0 0.79375-0.08819 0.79375-0.79375zm46.038 18.256v-1.5875h1.5875v3.175h-1.5875zm-6.35-5.5562c0-0.70556 0.0882-0.79375 0.79375-0.79375s0.79375 0.08819 0.79375 0.79375c0 0.70556-0.0882 0.79375-0.79375 0.79375-0.70556 0-0.79375-0.08819-0.79375-0.79375zm3.175 0c0-0.70556 0.0882-0.79375 0.79375-0.79375s0.79375-0.08819 0.79375-0.79375c0-0.70556-0.0882-0.79375-0.79375-0.79375-0.70556 0-0.79375-0.08819-0.79375-0.79375 0-0.70556 0.0882-0.79375 0.79375-0.79375s0.79375 0.08819 0.79375 0.79375c0 0.70556 0.0882 0.79375 0.79375 0.79375h0.79375v-4.7625h1.5875v7.9375h-4.7625zm-57.15-3.9688v-1.5875h-0.79375c-0.70556 0-0.79375 0.08819-0.79375 0.79375 0 0.70556-0.08819 0.79375-0.79375 0.79375-0.70556 0-0.79375-0.08819-0.79375-0.79375 0-0.70556 0.08819-0.79375 0.79375-0.79375 0.70556 0 0.79375-0.08819 0.79375-0.79375 0-0.70556-0.08819-0.79375-0.79375-0.79375-0.70556 0-0.79375-0.08819-0.79375-0.79375v-0.79375h6.35v-0.79375c0-0.70556-0.08819-0.79375-0.79375-0.79375-0.70556 0-0.79375-0.08819-0.79375-0.79375v-0.79375h3.175v4.7625h-4.7625v1.5875h3.175v0.79375c0 0.70556-0.08819 0.79375-0.79375 0.79375-0.70556 0-0.79375 0.08819-0.79375 0.79375 0 0.70556-0.08819 0.79375-0.79375 0.79375h-0.79375zm-3.175-7.1438v-0.79375h3.175v1.5875h-3.175zm26.988 0c0-0.70556 0.08819-0.79375 0.79375-0.79375 0.70556 0 0.79375 0.08819 0.79375 0.79375 0 0.70556-0.08819 0.79375-0.79375 0.79375-0.70556 0-0.79375-0.08819-0.79375-0.79375zm36.513 0c0-0.70556 0.0882-0.79375 0.79375-0.79375s0.79375 0.08819 0.79375 0.79375c0 0.70556-0.0882 0.79375-0.79375 0.79375-0.70556 0-0.79375-0.08819-0.79375-0.79375zm-63.5-7.9375v-5.5562h11.112v11.112h-11.112zm9.525 0v-3.9688h-7.9375v7.9375h7.9375zm-6.35 0v-2.3812h4.7625v4.7625h-4.7625zm22.225 4.7625c0-0.70556 0.08819-0.79375 0.79375-0.79375 0.70556 0 0.79375 0.08819 0.79375 0.79375 0 0.70556-0.08819 0.79375-0.79375 0.79375-0.70556 0-0.79375-0.08819-0.79375-0.79375zm28.575-4.7625v-5.5562h11.112v11.112h-11.112zm9.525 0v-3.9688h-7.9375v7.9375h7.9375zm-6.35 0v-2.3812h4.7625v4.7625h-4.7625zm-15.875 1.5875c0-0.70556-0.0882-0.79375-0.79375-0.79375-0.70556 0-0.79375-0.08819-0.79375-0.79375 0-0.70556-0.0882-0.79375-0.79376-0.79375-0.70555 0-0.79375-0.08819-0.79375-0.79375 0-0.70556 0.0882-0.79375 0.79375-0.79375 0.70556 0 0.79376-0.08819 0.79376-0.79375 0-0.70556 0.0882-0.79375 0.79375-0.79375s0.79375-0.08819 0.79375-0.79375c0-0.70556 0.0882-0.79375 0.79375-0.79375h0.79375v7.9375h-0.79375c-0.70556 0-0.79375-0.08819-0.79375-0.79375zm-17.463-3.175c0-0.70556 0.08819-0.79375 0.79375-0.79375 0.70556 0 0.79375 0.08819 0.79375 0.79375 0 0.70556-0.08819 0.79375-0.79375 0.79375-0.70556 0-0.79375-0.08819-0.79375-0.79375zm-1.5875-3.175c0-0.70556 0.08819-0.79375 0.79375-0.79375 0.70556 0 0.79375 0.08819 0.79375 0.79375 0 0.70556-0.08819 0.79375-0.79375 0.79375-0.70556 0-0.79375-0.08819-0.79375-0.79375z" stroke-width=".26458"/>
 </g>
</svg>
