<svg width="48" height="48" version="1.1" viewBox="0 0 12.7 12.7" xmlns="http://www.w3.org/2000/svg">
 <g transform="translate(-95.186 -86.332)">
  <path d="m101.84 98.637c1.156-.0701 2.302-.51272 3.2236-1.2452.25029-.19889.3397-.29881.43163-.48237.0731-.1459.0779-.17121.0779-.40813 0-.23425-.006-.26433-.0767-.41442-.0992-.20945-.27229-.38252-.48174-.48173-.15002-.0711-.18023-.0767-.41391-.0767-.30274 0-.41304.0424-.69622.26751-.60974.48474-1.2299.75451-1.9542.85011-.30975.0409-.92604.0167-1.2268-.0482-1.3424-.28963-2.4028-1.2257-2.8703-2.5338-.15913-.44533-.22102-.81842-.22102-1.3324 0-.20467.013-.45855.029-.56418.25074-1.6618 1.4468-2.9515 3.0623-3.302.33808-.0733.93845-.0904 1.3026-.037 1.1962.17542 2.2848.95437 2.8375 2.0304l.12095.23547-.40195.16047c-.22107.0883-.42728.18387-.45824.21247-.16695.15419-.16695.40607 0 .56007.031.0286.58026.27586 1.2207.54955 1.2328.52688 1.2751.54035 1.4355.45743.0403-.0208.0939-.0677.11906-.10425.0252-.0365.26611-.57954.53534-1.2067.42363-.98687.48961-1.1571.49023-1.2646.00051-.0889-.0134-.14315-.0488-.19058-.15696-.21022-.31351-.21781-.75286-.0365-.16401.0677-.30051.12041-.30333.11717-.003-.003-.0754-.14324-.16133-.3111-.76722-1.499-2.0909-2.5884-3.6664-3.0174-.52583-.1432-.95061-.19827-1.5234-.1975-1.1627.002-2.2021.31501-3.1811.95928-.88879.5849-1.6729 1.5105-2.1126 2.4937-.89466 2.0008-.63764 4.3005.67637 6.0519.22197.29585.70779.79711 1.003 1.0349 1.1299.91002 2.5429 1.3619 3.9852 1.2744z" fill="currentColor" stroke-width=".024008"/>
 </g>
</svg>
